<svg xmlns="http://www.w3.org/2000/svg" xmlns:xlink="http://www.w3.org/1999/xlink" width="500" zoomAndPan="magnify" viewBox="0 0 375 374.999991" height="500" preserveAspectRatio="xMidYMid meet" version="1.0"><path fill="#ffffff" d="M 56.542969 87.515625 C 56.253906 87.6875 55.96875 87.871094 55.695312 88.066406 C 54.433594 88.972656 53.316406 90.117188 52.292969 91.28125 C 50.167969 93.6875 48.257812 96.304688 46.394531 98.917969 C 43.4375 103.066406 40.566406 107.285156 37.863281 111.601562 C 37.777344 111.738281 37.699219 111.871094 37.621094 112.011719 C 37.105469 112.9375 36.585938 113.863281 36.066406 114.792969 C 31.503906 122.953125 27.53125 131.46875 24.324219 140.253906 C 13.761719 169.210938 12.203125 204.738281 19.261719 234.691406 C 21.902344 245.898438 25.59375 255.992188 29.917969 266.632812 C 29.953125 266.71875 29.988281 266.808594 30.027344 266.894531 C 32.902344 273.359375 36.300781 279.550781 40.089844 285.523438 C 41.519531 287.773438 42.988281 290 44.5 292.195312 C 53.84375 305.753906 64.691406 316.277344 76.6875 327.394531 C 76.871094 327.566406 77.054688 327.722656 77.25 327.875 C 83.269531 332.578125 89.515625 336.980469 95.976562 341.054688 C 98.210938 342.460938 100.519531 343.753906 102.824219 345.046875 C 102.886719 345.082031 102.953125 345.121094 103.019531 345.15625 C 113.804688 350.84375 124.800781 355.6875 136.46875 359.277344 C 148.136719 362.863281 160.042969 365.082031 172.128906 366.683594 C 172.328125 366.710938 172.527344 366.730469 172.726562 366.742188 C 173.671875 366.800781 174.617188 366.867188 175.5625 366.929688 C 211.050781 369.171875 240.476562 361.335938 271.894531 345.199219 C 271.992188 345.148438 272.085938 345.097656 272.179688 345.046875 C 274.484375 343.753906 276.789062 342.460938 279.023438 341.054688 C 285.488281 336.980469 291.734375 332.578125 297.753906 327.875 C 297.949219 327.722656 298.132812 327.566406 298.316406 327.394531 C 310.308594 316.277344 321.15625 305.753906 330.5 292.195312 C 332.015625 290 333.484375 287.773438 334.914062 285.523438 C 338.703125 279.550781 342.097656 273.359375 344.972656 266.894531 C 345.011719 266.808594 345.050781 266.71875 345.085938 266.632812 C 349.410156 255.992188 353.097656 245.898438 355.742188 234.6875 C 362.800781 204.738281 361.242188 169.210938 350.675781 140.253906 C 347.472656 131.46875 343.496094 122.953125 338.933594 114.792969 C 338.417969 113.863281 337.894531 112.9375 337.378906 112.011719 C 337.304688 111.871094 337.226562 111.738281 337.140625 111.601562 C 334.433594 107.285156 331.566406 103.066406 328.605469 98.917969 C 326.742188 96.304688 324.832031 93.6875 322.710938 91.28125 C 321.683594 90.117188 320.566406 88.972656 319.304688 88.066406 C 319.03125 87.871094 318.75 87.6875 318.460938 87.515625 C 316.394531 86.304688 315.222656 84.242188 315.242188 81.851562 C 315.257812 79.980469 315.25 78.113281 315.21875 76.246094 C 314.949219 60.472656 313.714844 44.738281 312.84375 28.992188 C 312.355469 20.152344 310.546875 9.609375 300.496094 7.285156 C 294.148438 5.816406 286.335938 9.085938 280.273438 10.898438 C 276.113281 12.144531 272 13.550781 267.9375 15.082031 C 267.207031 15.355469 266.492188 15.671875 265.761719 15.957031 C 260.855469 17.871094 256.109375 20.171875 251.402344 22.527344 C 251.335938 22.558594 251.269531 22.59375 251.203125 22.628906 C 240.695312 28.226562 231.1875 34.640625 221.976562 42.164062 C 220.320312 43.515625 218.304688 43.960938 216.234375 43.425781 C 214.515625 42.984375 212.800781 42.539062 211.078125 42.121094 C 210.957031 42.089844 210.835938 42.066406 210.714844 42.039062 C 210.386719 41.976562 210.0625 41.910156 209.734375 41.855469 C 194.894531 39.300781 182.214844 39.480469 167.339844 41.515625 C 167.289062 41.523438 167.238281 41.53125 167.1875 41.535156 C 166.203125 41.691406 165.222656 41.851562 164.25 42.046875 C 164.140625 42.070312 164.03125 42.09375 163.925781 42.121094 C 162.203125 42.539062 160.484375 42.984375 158.769531 43.425781 C 156.699219 43.960938 154.683594 43.515625 153.027344 42.164062 C 143.8125 34.640625 134.304688 28.226562 123.800781 22.628906 C 123.734375 22.59375 123.667969 22.558594 123.597656 22.527344 C 118.890625 20.171875 114.144531 17.871094 109.238281 15.957031 C 108.511719 15.671875 107.796875 15.355469 107.066406 15.082031 C 103 13.550781 98.890625 12.144531 94.726562 10.898438 C 88.664062 9.085938 80.855469 5.816406 74.503906 7.285156 C 64.457031 9.609375 62.648438 20.152344 62.160156 28.992188 C 61.289062 44.738281 60.050781 60.472656 59.785156 76.246094 C 59.753906 78.113281 59.746094 79.980469 59.757812 81.851562 C 59.777344 84.242188 58.605469 86.304688 56.542969 87.515625 Z M 56.542969 87.515625 " fill-opacity="1" fill-rule="evenodd"/><path fill="#1e3a8a" d="M 151.464844 67.042969 C 141.476562 70.171875 143.328125 65.757812 137.28125 59.027344 C 126.820312 47.898438 105.070312 34.285156 90.261719 30.65625 C 79.449219 28.007812 98.234375 37.597656 99.546875 38.394531 C 116.832031 48.898438 126.488281 56.125 138.078125 73.078125 C 143.097656 80.535156 143.582031 77.621094 150.820312 73.851562 C 152.929688 72.796875 161.941406 68.539062 163.816406 69.75 L 164.09375 70.011719 C 164.703125 71.085938 163.890625 75.335938 168.097656 75.300781 C 174.84375 74.699219 170.019531 67.601562 174.160156 67.226562 C 176.117188 67.050781 178.121094 66.941406 180.136719 66.753906 C 186.085938 66.210938 185.679688 67.863281 184.847656 73.546875 C 184.074219 78.84375 183.269531 82.578125 181.03125 87.53125 C 176.792969 96.332031 169.859375 104.160156 161.449219 109.136719 C 154.445312 113.21875 151.761719 113.949219 144.359375 116.628906 C 142.042969 117.484375 130.339844 122.09375 130.148438 124.347656 C 130.050781 125.503906 135.328125 123.351562 135.976562 123.117188 C 143.722656 120.796875 151.417969 123.660156 157.085938 129.058594 C 163.109375 135.742188 164.738281 144.769531 161.289062 153.109375 C 160.90625 154.039062 160.523438 154.757812 160.027344 155.625 C 153.691406 165.613281 141.851562 169.433594 131.191406 164.144531 C 122.769531 158.742188 122.558594 158.058594 120.125 148.589844 C 118.105469 140.730469 115.582031 146.734375 112.613281 150.613281 C 110.433594 153.453125 108.511719 155.277344 105.820312 157.605469 C 103.402344 159.558594 100.949219 161.21875 98.3125 162.851562 C 87.707031 168.757812 82.71875 169.363281 71.570312 172.566406 C 65.035156 174.445312 66.414062 176.53125 67.695312 182.714844 C 69.429688 191.078125 71.0625 195.589844 74.261719 203.445312 C 76.371094 208.644531 79.8125 213.164062 83.230469 217.554688 C 97.355469 233.929688 109.136719 240.726562 128.675781 249.15625 C 138.578125 253.757812 133.398438 254.492188 127.644531 261.476562 C 125.527344 264.042969 119.425781 271.617188 123.871094 274.378906 C 126.9375 276.289062 129.34375 275.613281 132.75 279.304688 C 134.019531 280.683594 134.691406 282.097656 135.492188 283.757812 C 136.910156 287.019531 137.132812 290.394531 136.738281 293.886719 C 136.25 301.152344 135.550781 328.191406 137.402344 333.988281 C 139.441406 340.378906 146.1875 339.734375 146.695312 331.976562 C 146.925781 328.46875 146.121094 323.34375 145.964844 319.488281 C 145.75 314.246094 145.5625 308.453125 146.277344 303.261719 L 146.375 302.558594 L 146.742188 301.261719 C 147.589844 299.394531 149.121094 297.726562 151.75 297.652344 C 157.816406 297.832031 158.4375 302.960938 158.464844 307.992188 C 158.449219 312.691406 156.171875 340.277344 158.921875 342.019531 C 168.621094 347.015625 202.242188 346.621094 212.785156 343.542969 C 218.367188 341.914062 217.574219 335.878906 217.488281 331.035156 C 217.355469 323.621094 216.6875 316.257812 216.542969 308.847656 C 216.484375 304.515625 216.785156 298.09375 222.40625 297.675781 L 223.25 297.652344 C 225.882812 297.726562 227.414062 299.394531 228.257812 301.261719 L 228.628906 302.558594 C 229.878906 312.109375 228.9375 319.417969 228.34375 328.824219 C 228.121094 332.296875 228.648438 338.820312 233.605469 338.265625 C 239.234375 337.636719 238.582031 325.738281 238.601562 321.683594 C 238.816406 312.414062 238.90625 303.144531 238.265625 293.886719 C 237.867188 290.394531 238.09375 287.019531 239.507812 283.757812 C 240.3125 282.097656 240.980469 280.683594 242.253906 279.304688 C 245.660156 275.613281 248.0625 276.289062 251.132812 274.378906 C 255.578125 271.617188 249.472656 264.042969 247.359375 261.476562 C 241.601562 254.492188 236.421875 253.757812 246.328125 249.15625 C 265.867188 240.726562 277.648438 233.929688 291.773438 217.554688 C 295.1875 213.164062 298.632812 208.644531 300.742188 203.445312 C 303.9375 195.589844 305.574219 191.078125 307.304688 182.714844 C 308.585938 176.53125 309.96875 174.445312 303.433594 172.566406 C 292.285156 169.363281 287.292969 168.757812 276.691406 162.851562 C 274.050781 161.21875 271.597656 159.558594 269.179688 157.605469 C 266.492188 155.277344 264.566406 153.453125 262.390625 150.613281 C 259.417969 146.734375 256.894531 140.730469 254.875 148.589844 C 252.445312 158.058594 252.234375 158.742188 243.8125 164.144531 C 233.148438 169.433594 221.308594 165.613281 214.976562 155.625 C 214.476562 154.757812 214.097656 154.039062 213.710938 153.109375 C 210.265625 144.769531 211.890625 135.742188 217.917969 129.058594 C 223.582031 123.660156 231.28125 120.796875 239.023438 123.117188 C 239.671875 123.351562 244.949219 125.503906 244.851562 124.347656 C 244.664062 122.09375 232.957031 117.484375 230.644531 116.628906 C 223.242188 113.949219 220.558594 113.21875 213.554688 109.136719 C 205.144531 104.160156 198.210938 96.332031 193.972656 87.53125 C 192.648438 84.324219 186.429688 67.542969 192.140625 66.671875 C 193.574219 66.453125 200.140625 67.171875 202.167969 67.621094 C 202.933594 68.195312 202.84375 70.230469 202.878906 71.074219 C 202.960938 73.554688 204.308594 75.277344 206.902344 75.300781 C 211.109375 75.335938 210.300781 71.085938 210.90625 70.011719 L 211.1875 69.75 C 213.0625 68.539062 222.070312 72.796875 224.183594 73.851562 C 231.417969 77.621094 231.902344 80.535156 236.921875 73.078125 C 248.515625 56.125 258.167969 48.898438 275.453125 38.394531 C 276.765625 37.597656 295.550781 28.007812 284.738281 30.65625 C 269.933594 34.285156 248.183594 47.898438 237.722656 59.027344 C 231.675781 65.757812 233.523438 70.171875 223.539062 67.042969 C 204.765625 60.882812 187.441406 58.414062 167.832031 62.375 C 163.320312 63.289062 159.007812 64.578125 154.632812 65.988281 C 153.574219 66.335938 152.519531 66.6875 151.464844 67.042969 Z M 173.28125 357.996094 C 147.089844 354.523438 130.5625 349.777344 107.109375 337.402344 C 104.820312 336.117188 102.816406 335.003906 100.648438 333.640625 C 94.375 329.683594 88.480469 325.527344 82.644531 320.96875 C 70.023438 309.265625 61.65625 301.636719 51.71875 287.222656 C 50.269531 285.113281 48.871094 282.984375 47.488281 280.828125 C 43.863281 275.089844 40.796875 269.539062 38.035156 263.332031 C 33.246094 251.542969 30.90625 245.902344 27.789062 232.679688 C 21.222656 204.800781 22.484375 170.875 32.558594 143.257812 C 35.601562 134.917969 39.425781 126.746094 43.71875 119.070312 C 44.316406 118 44.691406 117.332031 45.289062 116.257812 C 46.578125 114.199219 60.449219 92.722656 61.871094 95.019531 C 63.003906 97.519531 63.734375 109.617188 62.707031 112.132812 C 61.070312 116.136719 56.738281 121.796875 54.433594 126.113281 C 49.921875 134.566406 46.535156 143.339844 43.445312 152.390625 C 37.105469 171.242188 36.042969 194.519531 38.394531 214.773438 C 39.78125 226.726562 43.382812 243.808594 48.59375 254.527344 C 49.6875 257.101562 56.640625 274.671875 59.800781 273.03125 C 61.355469 272.226562 66.871094 260.34375 69.027344 257.136719 C 72.703125 251.730469 76.3125 247.496094 80.492188 242.542969 C 85.945312 236.085938 81.671875 235.507812 76.761719 230.226562 C 75.195312 228.457031 73.738281 226.566406 72.296875 224.6875 C 64.867188 214.785156 58.914062 202.90625 56.207031 190.53125 C 50.921875 163.164062 53.507812 141.828125 66.375 116.988281 C 70.308594 109.730469 70.289062 110.460938 69.515625 102.242188 L 69.402344 101.039062 C 68.757812 92.945312 68.457031 84.515625 68.546875 76.394531 C 68.863281 60.796875 70.128906 45.082031 70.910156 29.476562 C 72.015625 11.011719 77.640625 14.9375 92.21875 19.296875 C 96.214844 20.492188 100.070312 21.8125 103.976562 23.28125 C 104.746094 23.574219 105.296875 23.828125 106.054688 24.125 C 110.769531 25.960938 115.148438 28.097656 119.679688 30.367188 C 131.832031 36.839844 140.394531 42.875 150.863281 51.773438 C 154.320312 54.71875 156.683594 53.097656 160.699219 51.980469 C 162.464844 51.527344 164.214844 51.066406 165.988281 50.636719 C 166.847656 50.464844 167.664062 50.332031 168.53125 50.199219 C 183.429688 48.15625 193.351562 47.933594 208.25 50.492188 C 208.503906 50.539062 208.757812 50.585938 209.015625 50.636719 C 210.785156 51.066406 212.539062 51.527344 214.304688 51.980469 C 218.320312 53.097656 220.683594 54.71875 224.136719 51.773438 C 234.609375 42.875 243.171875 36.839844 255.324219 30.367188 C 259.855469 28.097656 264.234375 25.960938 268.945312 24.125 C 269.707031 23.828125 270.257812 23.574219 271.027344 23.28125 C 274.929688 21.8125 278.789062 20.492188 282.785156 19.296875 C 297.363281 14.9375 302.988281 11.011719 304.09375 29.476562 C 304.871094 45.082031 306.140625 60.796875 306.457031 76.394531 C 306.542969 84.515625 306.242188 92.945312 305.601562 101.039062 L 305.488281 102.242188 C 304.714844 110.460938 304.695312 109.730469 308.628906 116.988281 C 321.496094 141.828125 324.082031 163.164062 318.792969 190.53125 C 316.089844 202.90625 310.136719 214.785156 302.703125 224.6875 C 301.265625 226.566406 299.808594 228.457031 298.238281 230.226562 C 293.332031 235.507812 289.054688 236.085938 294.507812 242.542969 C 298.691406 247.496094 302.300781 251.730469 305.972656 257.136719 C 308.132812 260.34375 313.648438 272.226562 315.203125 273.03125 C 318.363281 274.671875 325.316406 257.101562 326.410156 254.527344 C 331.617188 243.808594 335.222656 226.726562 336.609375 214.773438 C 338.960938 194.519531 337.894531 171.242188 331.558594 152.390625 C 328.46875 143.339844 325.082031 134.566406 320.570312 126.113281 C 318.261719 121.796875 313.933594 116.136719 312.296875 112.132812 C 311.265625 109.617188 311.996094 97.519531 313.128906 95.019531 C 314.550781 92.722656 328.425781 114.199219 329.714844 116.257812 C 330.308594 117.332031 330.6875 118 331.285156 119.070312 C 335.578125 126.746094 339.402344 134.917969 342.445312 143.257812 C 352.519531 170.875 353.78125 204.800781 347.210938 232.679688 C 344.09375 245.902344 341.757812 251.542969 336.964844 263.332031 C 334.203125 269.539062 331.140625 275.089844 327.511719 280.828125 C 326.132812 282.984375 324.730469 285.113281 323.285156 287.222656 C 313.34375 301.636719 304.980469 309.265625 292.355469 320.96875 C 286.519531 325.527344 280.628906 329.683594 274.351562 333.640625 C 272.1875 335.003906 270.179688 336.117188 267.890625 337.402344 C 237.804688 352.855469 210.128906 360.324219 176.113281 358.183594 C 175.167969 358.117188 174.226562 358.054688 173.28125 357.996094 Z M 217.933594 195.15625 C 219.722656 191.164062 220.027344 183.5625 213.71875 183.980469 C 207.902344 184.910156 210.578125 191.816406 205.414062 194.617188 C 196.777344 198.179688 192.027344 190.757812 192.480469 182.875 C 192.566406 181.410156 192.75 180.6875 193.566406 179.488281 C 194.863281 178.519531 195.78125 178.640625 197.550781 176.9375 L 198.414062 176.109375 L 199.402344 175.070312 C 204.730469 169.125 206.699219 160.683594 196.175781 159.855469 C 192.035156 159.527344 186.320312 159.863281 181.957031 159.859375 C 177.117188 159.855469 171.761719 159.519531 171.289062 166.011719 C 171.289062 171.289062 176.511719 176.875 180.652344 179.144531 C 183.320312 180.742188 182.570312 181.5 182.402344 184.511719 C 182.082031 190.261719 180.039062 195.609375 173.34375 195.597656 C 169.804688 195.59375 168.183594 193.820312 166.515625 190.972656 C 165.109375 187.734375 165.28125 184.621094 161.28125 183.984375 C 154.972656 183.5625 155.277344 191.164062 157.070312 195.15625 C 162.363281 204.445312 173.183594 209.296875 182.496094 202.441406 C 189.054688 197.609375 187.554688 199.101562 193.410156 203.042969 C 201.265625 208.324219 211.949219 205.238281 216.722656 197.335938 L 217.148438 196.628906 Z M 286.386719 198.144531 C 286.386719 201.296875 284.25 203.449219 281.453125 203.359375 L 263.644531 200.144531 C 261.945312 199.914062 260.921875 199.691406 259.820312 198.710938 L 258.640625 197.261719 C 256.761719 193.609375 260.054688 190.253906 263.082031 190.117188 C 264.960938 190.03125 282.414062 192.542969 284.71875 194.554688 C 285.660156 195.382812 286.386719 196.515625 286.386719 198.144531 Z M 285.144531 184.804688 C 284.277344 184.6875 283.5625 184.71875 282.703125 184.59375 C 277.066406 183.765625 275.171875 183.835938 269.738281 183.539062 C 266.234375 183.347656 262.277344 184.765625 260.007812 182.75 C 256.367188 179.523438 258.425781 175.332031 261.242188 174.167969 C 262.339844 173.714844 270.207031 173.53125 272.375 173.597656 C 273.851562 173.640625 273.988281 173.894531 275.566406 173.910156 C 277.738281 173.929688 280.082031 174.007812 282.179688 174.308594 C 286.125 174.8125 291.414062 175.109375 290.710938 180.605469 C 290.304688 183.785156 288.132812 184.957031 285.144531 184.804688 Z M 281.648438 246.003906 C 279.046875 245.945312 277.785156 248.609375 279.195312 251.066406 C 280.253906 252.902344 283.304688 256 284.84375 258.039062 C 291.699219 267.382812 295.730469 274.304688 300.324219 284.949219 C 301.785156 288.339844 304.128906 293.070312 306.683594 287.058594 C 309.261719 280.992188 305.058594 277.808594 302.167969 272.898438 C 298.425781 266.546875 288.183594 248.402344 281.648438 246.003906 Z M 227.761719 142.039062 C 231.210938 144.050781 234.640625 143.832031 236.707031 140.121094 C 238.4375 137.015625 237.660156 133.371094 234.183594 131.9375 L 233.273438 131.617188 C 226.097656 129.667969 223.640625 138.703125 227.367188 141.71875 Z M 292.519531 84.214844 C 292.390625 74.1875 291.640625 61.558594 290.269531 51.695312 C 289.105469 44.546875 288.460938 44.28125 282.261719 48.089844 C 280.515625 49.246094 278.875 50.429688 277.179688 51.648438 C 272.175781 54.972656 250.460938 69.140625 250.933594 75.023438 C 252.800781 77.863281 265.417969 88.074219 269.277344 92.269531 C 270 93.183594 270.542969 93.550781 271.265625 94.367188 C 285.988281 111.570312 296.457031 129.820312 299.914062 152.449219 C 300.457031 155.785156 300.976562 157.863281 304.746094 158.496094 C 309.46875 159.285156 307.992188 154.058594 307.472656 151.222656 C 306.425781 145.121094 304.789062 138.847656 302.925781 132.941406 C 300.363281 125.222656 297.070312 118.253906 292.898438 111.28125 C 291.855469 109.554688 291.046875 108.277344 291.128906 106.214844 C 292.035156 99.648438 292.519531 91.785156 292.519531 84.214844 Z M 88.617188 198.144531 C 88.617188 201.296875 90.753906 203.449219 93.550781 203.359375 L 111.355469 200.144531 C 113.058594 199.914062 114.078125 199.691406 115.179688 198.710938 L 116.363281 197.261719 C 118.238281 193.609375 114.945312 190.253906 111.921875 190.117188 C 110.039062 190.03125 92.585938 192.542969 90.285156 194.554688 C 89.339844 195.382812 88.617188 196.515625 88.617188 198.144531 Z M 89.855469 184.804688 C 90.722656 184.6875 91.4375 184.71875 92.296875 184.59375 C 97.9375 183.765625 99.832031 183.835938 105.265625 183.539062 C 108.769531 183.347656 112.722656 184.765625 114.996094 182.75 C 118.632812 179.523438 116.574219 175.332031 113.761719 174.167969 C 112.664062 173.714844 104.796875 173.53125 102.628906 173.597656 C 101.152344 173.640625 101.011719 173.894531 99.433594 173.910156 C 97.265625 173.929688 94.921875 174.007812 92.824219 174.308594 C 88.878906 174.8125 83.585938 175.109375 84.289062 180.605469 C 84.695312 183.785156 86.871094 184.957031 89.855469 184.804688 Z M 93.355469 246.003906 C 95.957031 245.945312 97.21875 248.609375 95.804688 251.066406 C 94.75 252.902344 91.699219 256 90.15625 258.039062 C 83.300781 267.382812 79.273438 274.304688 74.679688 284.949219 C 73.21875 288.339844 70.875 293.070312 68.320312 287.058594 C 65.742188 280.992188 69.941406 277.808594 72.835938 272.898438 C 76.578125 266.546875 86.820312 248.402344 93.355469 246.003906 Z M 147.238281 142.039062 C 143.792969 144.050781 140.359375 143.832031 138.292969 140.121094 C 136.566406 137.015625 137.339844 133.371094 140.820312 131.9375 L 141.730469 131.617188 C 148.902344 129.667969 151.359375 138.703125 147.632812 141.71875 Z M 82.480469 84.214844 C 82.609375 74.1875 83.359375 61.558594 84.734375 51.695312 C 85.894531 44.546875 86.542969 44.28125 92.742188 48.089844 C 94.484375 49.246094 96.128906 50.429688 97.824219 51.648438 C 102.828125 54.972656 124.539062 69.140625 124.066406 75.023438 C 122.203125 77.863281 109.585938 88.074219 105.726562 92.269531 C 105 93.183594 104.457031 93.550781 103.734375 94.367188 C 89.015625 111.570312 78.546875 129.820312 75.085938 152.449219 C 74.546875 155.785156 74.027344 157.863281 70.253906 158.496094 C 65.535156 159.285156 67.011719 154.058594 67.53125 151.222656 C 68.574219 145.121094 70.214844 138.847656 72.074219 132.941406 C 74.640625 125.222656 77.929688 118.253906 82.105469 111.28125 C 83.144531 109.554688 83.957031 108.277344 83.875 106.214844 C 82.964844 99.648438 82.480469 91.785156 82.480469 84.214844 Z M 82.480469 84.214844 " fill-opacity="1" fill-rule="evenodd"/></svg>