<svg xmlns="http://www.w3.org/2000/svg" xmlns:xlink="http://www.w3.org/1999/xlink" width="500" zoomAndPan="magnify" viewBox="0 0 375 374.999991" height="500" preserveAspectRatio="xMidYMid meet" version="1.0"><defs><clipPath id="ba95bf03b5"><path d="M 157 331 L 307 331 L 307 357.570312 L 157 357.570312 Z M 157 331 " clip-rule="nonzero"/></clipPath><clipPath id="c7556e251b"><path d="M 8 155 L 209 155 L 209 357.570312 L 8 357.570312 Z M 8 155 " clip-rule="nonzero"/></clipPath><clipPath id="40f0ae515f"><path d="M 7.152344 17.070312 L 171 17.070312 L 171 151 L 7.152344 151 Z M 7.152344 17.070312 " clip-rule="nonzero"/></clipPath></defs><path fill="#b1b9c6" d="M 351.695312 101.574219 C 339.039062 88.933594 298.714844 111.929688 280.957031 123.078125 C 272.167969 121.617188 260.828125 121.019531 247.84375 121.078125 C 234.859375 121.019531 223.519531 121.617188 214.726562 123.078125 C 196.960938 111.921875 156.640625 88.941406 143.992188 101.574219 C 131.429688 114.125 145.773438 148.574219 153.140625 163.921875 C 144.429688 178.617188 141.246094 194.714844 141.246094 208.574219 C 141.246094 220.558594 142.675781 232.53125 145.550781 244.5 C 151.164062 267.863281 169.65625 285.804688 193.230469 290.574219 C 200.980469 292.136719 208.734375 293.367188 216.484375 294.265625 C 200.796875 299.84375 190.550781 309.03125 190.550781 319.425781 C 190.550781 336.433594 217.980469 350.222656 251.816406 350.222656 C 285.652344 350.222656 301.457031 332.269531 301.457031 315.261719 C 301.457031 305.375 296.105469 297.992188 284.988281 293.535156 C 290.8125 292.734375 296.636719 291.75 302.457031 290.574219 C 326.03125 285.804688 344.527344 267.863281 350.136719 244.5 C 353.011719 232.53125 354.441406 220.558594 354.441406 208.574219 C 354.441406 194.71875 351.261719 178.628906 342.554688 163.933594 C 349.902344 148.597656 364.261719 114.128906 351.695312 101.574219 Z M 351.695312 101.574219 " fill-opacity="1" fill-rule="nonzero"/><path fill="#91a2b5" d="M 260.734375 129.632812 C 260.734375 149.46875 254.953125 165.542969 247.851562 165.542969 C 240.734375 165.542969 234.953125 149.46875 234.953125 129.632812 C 234.953125 126.914062 235.058594 124.269531 235.273438 121.734375 C 243.652344 121.355469 252.03125 121.355469 260.414062 121.746094 C 260.625 124.285156 260.734375 126.929688 260.734375 129.632812 Z M 260.734375 129.632812 " fill-opacity="1" fill-rule="nonzero"/><path fill="#91a2b5" d="M 233.054688 123.117188 C 233.054688 142.941406 227.289062 159.027344 220.171875 159.027344 C 213.328125 159.027344 207.699219 144.0625 207.304688 125.226562 C 211.730469 124.074219 216.308594 123.253906 220.992188 122.78125 C 225.007812 122.386719 229.023438 122.066406 233.039062 121.855469 C 233.054688 122.28125 233.054688 122.691406 233.054688 123.117188 Z M 233.054688 123.117188 " fill-opacity="1" fill-rule="nonzero"/><path fill="#91a2b5" d="M 288.382812 125.058594 C 288.019531 143.972656 282.390625 159.023438 275.515625 159.023438 C 268.398438 159.023438 262.632812 142.9375 262.632812 123.113281 C 262.632812 122.6875 262.632812 122.28125 262.648438 121.855469 C 267.257812 122.097656 271.878906 122.476562 276.488281 122.964844 C 280.550781 123.386719 284.519531 124.101562 288.382812 125.058594 Z M 288.382812 125.058594 " fill-opacity="1" fill-rule="nonzero"/><path fill="#ffffff" d="M 336.867188 132.09375 C 336.867188 132.09375 338.921875 136.742188 339.253906 141.953125 C 339.574219 146.769531 336.667969 150.445312 332.867188 151.980469 C 324.882812 142.910156 315.027344 135.496094 303.894531 130.347656 C 304 127.734375 305.097656 125.167969 307.226562 123.238281 C 315.773438 115.476562 327.589844 107.105469 335.953125 110.511719 C 350.523438 116.449219 336.867188 132.09375 336.867188 132.09375 Z M 336.867188 132.09375 " fill-opacity="1" fill-rule="nonzero"/><path fill="#ffffff" d="M 158.808594 132.09375 C 158.808594 132.09375 156.757812 136.742188 156.421875 141.953125 C 156.101562 146.769531 159.007812 150.445312 162.808594 151.980469 C 170.792969 142.910156 180.648438 135.496094 191.78125 130.347656 C 191.675781 127.734375 190.582031 125.167969 188.453125 123.238281 C 179.90625 115.476562 168.085938 107.105469 159.722656 110.511719 C 145.152344 116.449219 158.808594 132.09375 158.808594 132.09375 Z M 158.808594 132.09375 " fill-opacity="1" fill-rule="nonzero"/><path fill="#678490" d="M 354.375 98.886719 C 347.617188 92.136719 335.335938 92.460938 316.824219 99.875 C 303.511719 105.210938 289.742188 113.132812 280.140625 119.113281 C 271.707031 117.839844 260.894531 117.222656 247.859375 117.28125 C 234.789062 117.222656 223.972656 117.839844 215.535156 119.113281 C 205.921875 113.128906 192.136719 105.203125 178.847656 99.875 C 160.339844 92.460938 148.058594 92.136719 141.296875 98.886719 C 127.867188 112.300781 139.816406 144.496094 148.84375 163.734375 C 139.214844 180.882812 137.445312 198.207031 137.445312 208.574219 C 137.445312 220.820312 138.929688 233.203125 141.855469 245.386719 C 147.785156 270.074219 167.65625 289.269531 192.476562 294.292969 C 192.730469 294.34375 192.984375 294.371094 193.234375 294.371094 C 195.003906 294.371094 196.589844 293.125 196.957031 291.324219 C 197.371094 289.269531 196.042969 287.265625 193.984375 286.851562 C 172.050781 282.414062 154.488281 265.441406 149.246094 243.613281 C 146.460938 232.011719 145.046875 220.222656 145.046875 208.574219 C 145.046875 195.699219 147.996094 171.121094 167.726562 151.214844 C 169.203125 149.722656 169.191406 147.320312 167.699219 145.84375 C 166.207031 144.367188 163.800781 144.378906 162.324219 145.871094 C 159.042969 149.179688 156.191406 152.605469 153.703125 156.082031 C 142.300781 130.4375 139.636719 111.285156 146.675781 104.257812 C 153.445312 97.492188 175.382812 104.09375 204.796875 121.484375 C 199.695312 123 194.789062 124.792969 190.214844 126.847656 C 188.300781 127.707031 187.449219 129.953125 188.308594 131.867188 C 189.167969 133.777344 191.421875 134.632812 193.335938 133.773438 C 198.007812 131.671875 203.054688 129.847656 208.335938 128.34375 C 216.738281 125.960938 230.03125 124.789062 247.859375 124.875 C 265.65625 124.78125 278.949219 125.960938 287.347656 128.34375 C 292.632812 129.847656 297.679688 131.671875 302.351562 133.773438 C 302.859375 134 303.386719 134.105469 303.910156 134.105469 C 305.359375 134.105469 306.746094 133.273438 307.378906 131.867188 C 308.238281 129.953125 307.386719 127.707031 305.46875 126.847656 C 300.898438 124.792969 295.988281 122.996094 290.878906 121.480469 C 320.285156 104.082031 342.21875 97.484375 349 104.257812 C 356.027344 111.277344 353.367188 130.425781 341.980469 156.082031 C 339.492188 152.605469 336.640625 149.179688 333.363281 145.871094 C 331.886719 144.378906 329.480469 144.367188 327.988281 145.84375 C 326.496094 147.320312 326.484375 149.722656 327.960938 151.214844 C 347.691406 171.121094 350.636719 195.699219 350.636719 208.574219 C 350.636719 220.222656 349.226562 232.011719 346.4375 243.613281 C 341.195312 265.441406 323.636719 282.414062 301.703125 286.851562 C 299.644531 287.265625 298.316406 289.269531 298.730469 291.324219 C 299.097656 293.128906 300.679688 294.371094 302.453125 294.371094 C 302.703125 294.371094 302.957031 294.34375 303.210938 294.292969 C 328.03125 289.269531 347.902344 270.074219 353.832031 245.386719 C 356.757812 233.203125 358.242188 220.816406 358.242188 208.574219 C 358.242188 198.210938 356.46875 180.882812 346.84375 163.738281 C 355.859375 144.492188 367.792969 112.285156 354.375 98.886719 Z M 354.375 98.886719 " fill-opacity="1" fill-rule="nonzero"/><path fill="#91a2b5" d="M 323.277344 239.144531 L 304.382812 239.144531 C 302.285156 239.144531 300.582031 237.441406 300.582031 235.347656 C 300.582031 233.25 302.285156 231.550781 304.382812 231.550781 L 323.277344 231.550781 C 325.378906 231.550781 327.078125 233.25 327.078125 235.347656 C 327.078125 237.441406 325.378906 239.144531 323.277344 239.144531 Z M 323.277344 239.144531 " fill-opacity="1" fill-rule="nonzero"/><path fill="#91a2b5" d="M 319.84375 256.871094 C 319.402344 256.871094 318.957031 256.796875 318.523438 256.636719 L 303.0625 250.914062 C 301.09375 250.1875 300.089844 248.003906 300.820312 246.035156 C 301.546875 244.070312 303.734375 243.066406 305.703125 243.796875 L 321.164062 249.515625 C 323.132812 250.242188 324.136719 252.425781 323.40625 254.394531 C 322.839844 255.925781 321.386719 256.871094 319.84375 256.871094 Z M 319.84375 256.871094 " fill-opacity="1" fill-rule="nonzero"/><path fill="#ffffff" d="M 285.421875 195.160156 L 275.507812 195.160156 C 273.410156 195.160156 271.707031 193.460938 271.707031 191.363281 C 271.707031 189.265625 273.410156 187.566406 275.507812 187.566406 L 285.421875 187.566406 C 287.523438 187.566406 289.222656 189.265625 289.222656 191.363281 C 289.222656 193.460938 287.523438 195.160156 285.421875 195.160156 Z M 285.421875 195.160156 " fill-opacity="1" fill-rule="nonzero"/><path fill="#ffffff" d="M 220.175781 195.160156 L 210.265625 195.160156 C 208.164062 195.160156 206.464844 193.460938 206.464844 191.363281 C 206.464844 189.265625 208.164062 187.566406 210.265625 187.566406 L 220.175781 187.566406 C 222.277344 187.566406 223.976562 189.265625 223.976562 191.363281 C 223.976562 193.460938 222.277344 195.160156 220.175781 195.160156 Z M 220.175781 195.160156 " fill-opacity="1" fill-rule="nonzero"/><path fill="#605c5d" d="M 304.976562 221.832031 L 281.0625 221.832031 C 278.960938 221.832031 277.261719 220.128906 277.261719 218.035156 C 277.261719 215.9375 278.960938 214.238281 281.0625 214.238281 L 304.976562 214.238281 C 307.078125 214.238281 308.777344 215.9375 308.777344 218.035156 C 308.777344 220.128906 307.078125 221.832031 304.976562 221.832031 Z M 304.976562 221.832031 " fill-opacity="1" fill-rule="nonzero"/><path fill="#605c5d" d="M 214.625 221.832031 L 190.710938 221.832031 C 188.609375 221.832031 186.910156 220.128906 186.910156 218.035156 C 186.910156 215.9375 188.609375 214.238281 190.710938 214.238281 L 214.625 214.238281 C 216.726562 214.238281 218.425781 215.9375 218.425781 218.035156 C 218.425781 220.128906 216.722656 221.832031 214.625 221.832031 Z M 214.625 221.832031 " fill-opacity="1" fill-rule="nonzero"/><path fill="#678490" d="M 261.222656 229.066406 L 251.644531 219.5 L 251.644531 216.28125 L 253.148438 216.28125 C 255.25 216.28125 256.949219 214.582031 256.949219 212.484375 C 256.949219 210.386719 255.25 208.6875 253.148438 208.6875 L 242.535156 208.6875 C 240.4375 208.6875 238.734375 210.386719 238.734375 212.484375 C 238.734375 214.582031 240.4375 216.28125 242.535156 216.28125 L 244.042969 216.28125 L 244.042969 219.5 L 234.460938 229.066406 C 232.976562 230.550781 232.976562 232.953125 234.460938 234.4375 C 235.945312 235.917969 238.355469 235.917969 239.839844 234.4375 L 247.84375 226.441406 L 255.847656 234.4375 C 256.589844 235.175781 257.5625 235.546875 258.535156 235.546875 C 259.507812 235.546875 260.480469 235.179688 261.222656 234.4375 C 262.710938 232.953125 262.710938 230.550781 261.222656 229.066406 Z M 261.222656 229.066406 " fill-opacity="1" fill-rule="nonzero"/><path fill="#93f6f8" d="M 132.777344 20.890625 L 44.910156 20.890625 C 26.226562 20.890625 11.082031 36.019531 11.082031 54.675781 L 11.082031 87.511719 C 11.082031 106.171875 26.226562 121.300781 44.910156 121.300781 L 95.496094 121.300781 C 95.496094 135.578125 101.082031 147.148438 107.972656 147.148438 C 114.859375 147.148438 120.445312 135.578125 120.445312 121.300781 L 132.777344 121.300781 C 151.460938 121.300781 166.605469 106.171875 166.605469 87.511719 L 166.605469 54.675781 C 166.605469 36.019531 151.460938 20.890625 132.777344 20.890625 Z M 132.777344 20.890625 " fill-opacity="1" fill-rule="nonzero"/><path fill="#b1b9c6" d="M 333.476562 314.050781 C 331.078125 301.859375 324.605469 292.082031 316.976562 287.652344 C 315.511719 281.277344 310.066406 276.289062 303.195312 275.710938 L 296.71875 275.164062 C 285.035156 274.175781 273.878906 275.371094 272.929688 282.410156 C 272.371094 286.558594 275.667969 289.128906 279.875 290.714844 L 278.765625 303.824219 C 278.148438 311.121094 282.703125 317.652344 289.382812 319.820312 C 289.515625 320.746094 289.664062 321.671875 289.847656 322.609375 C 293.429688 340.816406 306.097656 353.664062 318.144531 351.296875 C 330.191406 348.933594 337.054688 332.257812 333.476562 314.050781 Z M 333.476562 314.050781 " fill-opacity="1" fill-rule="nonzero"/><path fill="#678490" d="M 337.207031 313.3125 C 334.789062 301.023438 328.5 290.664062 320.246094 285.207031 C 319.484375 282.851562 318.261719 280.640625 316.613281 278.691406 C 313.289062 274.765625 308.636719 272.363281 303.511719 271.929688 L 297.136719 271.390625 C 297.105469 271.386719 297.070312 271.382812 297.035156 271.378906 C 285.101562 270.371094 270.578125 271.378906 269.164062 281.90625 C 268.769531 284.816406 269.585938 287.535156 271.523438 289.769531 C 272.664062 291.089844 274.167969 292.167969 275.859375 293.054688 L 274.972656 303.507812 C 274.277344 311.738281 278.898438 319.210938 285.96875 322.546875 C 286.015625 322.816406 286.066406 323.082031 286.117188 323.335938 C 287.992188 332.867188 292.25 341.390625 298.113281 347.335938 C 303.308594 352.601562 309.265625 355.382812 315.207031 355.382812 C 316.429688 355.382812 317.65625 355.261719 318.875 355.023438 C 325.996094 353.628906 331.789062 348.3125 335.1875 340.058594 C 338.363281 332.34375 339.078125 322.84375 337.207031 313.3125 Z M 282.550781 304.148438 L 283.269531 295.65625 C 288.828125 296.941406 294.148438 297.0625 295.140625 297.074219 C 295.15625 297.074219 295.167969 297.074219 295.183594 297.074219 C 297.261719 297.074219 298.957031 295.40625 298.984375 293.324219 C 299.007812 291.226562 297.324219 289.507812 295.226562 289.480469 C 289.386719 289.410156 279.957031 287.910156 277.269531 284.800781 C 276.761719 284.214844 276.597656 283.667969 276.699219 282.917969 C 277.152344 279.53125 284.882812 277.972656 296.394531 278.945312 C 296.394531 278.945312 296.398438 278.945312 296.398438 278.945312 L 296.398438 278.949219 L 302.871094 279.496094 C 309.285156 280.039062 314.058594 285.6875 313.519531 292.085938 L 312.285156 306.660156 C 311.742188 313.066406 306.078125 317.839844 299.671875 317.296875 L 293.199219 316.75 C 286.785156 316.207031 282.007812 310.554688 282.550781 304.148438 Z M 328.15625 337.171875 C 325.761719 342.988281 321.945312 346.683594 317.410156 347.570312 C 312.875 348.460938 307.949219 346.484375 303.53125 342.003906 C 299.226562 337.636719 295.953125 331.476562 294.164062 324.449219 L 299.03125 324.863281 C 299.582031 324.910156 300.128906 324.929688 300.671875 324.929688 C 310.570312 324.929688 319.011719 317.328125 319.863281 307.300781 L 320.835938 295.769531 C 325.039062 300.519531 328.265625 307.261719 329.746094 314.777344 C 331.335938 322.863281 330.769531 330.816406 328.15625 337.171875 Z M 328.15625 337.171875 " fill-opacity="1" fill-rule="nonzero"/><path fill="#b1b9c6" d="M 238.046875 299.480469 L 236.449219 293.191406 C 234.351562 284.925781 225.933594 279.910156 217.660156 282.007812 L 203.460938 285.601562 C 200.835938 286.269531 198.542969 287.570312 196.695312 289.296875 C 189.070312 291.480469 181.078125 297.328125 175.046875 305.921875 C 164.382812 321.113281 163.886719 339.140625 173.9375 346.179688 C 183.992188 353.21875 200.789062 346.605469 211.453125 331.414062 C 213.890625 327.9375 215.789062 324.320312 217.160156 320.714844 L 225.4375 318.617188 C 227.691406 322.507812 230.765625 325.335938 234.769531 324.105469 C 241.570312 322.027344 240.929688 310.835938 238.046875 299.480469 Z M 238.046875 299.480469 " fill-opacity="1" fill-rule="nonzero"/><path fill="#678490" d="M 241.734375 298.550781 C 241.722656 298.519531 241.710938 298.488281 241.703125 298.457031 L 240.128906 292.261719 C 237.519531 281.972656 227.011719 275.722656 216.722656 278.328125 L 202.523438 281.925781 C 199.570312 282.671875 196.953125 284.070312 194.78125 285.921875 C 186.320312 288.605469 178.035156 295.042969 171.933594 303.738281 C 159.882812 320.90625 159.800781 340.914062 171.753906 349.289062 C 175.097656 351.628906 179.046875 352.808594 183.339844 352.808594 C 186.679688 352.808594 190.222656 352.097656 193.859375 350.667969 C 201.628906 347.609375 208.984375 341.542969 214.566406 333.589844 C 216.734375 330.5 218.539062 327.253906 219.960938 323.925781 L 223.78125 322.957031 C 224.929688 324.480469 226.242188 325.785156 227.730469 326.695312 C 229.359375 327.691406 231.113281 328.195312 232.90625 328.195312 C 233.890625 328.195312 234.886719 328.042969 235.886719 327.738281 C 246.050781 324.625 244.675781 310.148438 241.734375 298.550781 Z M 208.339844 329.230469 C 203.601562 335.980469 197.46875 341.082031 191.070312 343.601562 C 185.210938 345.90625 179.902344 345.71875 176.117188 343.070312 C 167.941406 337.339844 168.875 321.324219 178.160156 308.097656 C 181.066406 303.957031 184.511719 300.4375 188.199219 297.757812 C 187.832031 300.207031 187.933594 302.769531 188.578125 305.316406 L 190.175781 311.605469 C 192.386719 320.316406 200.25 326.128906 208.859375 326.128906 C 209.363281 326.128906 209.867188 326.101562 210.375 326.0625 C 209.742188 327.136719 209.066406 328.195312 208.339844 329.230469 Z M 233.65625 320.476562 C 232.929688 320.699219 232.363281 320.625 231.699219 320.21875 C 228.191406 318.078125 225.171875 309.03125 224.148438 303.292969 C 223.78125 301.226562 221.808594 299.847656 219.742188 300.214844 C 217.675781 300.582031 216.292969 302.550781 216.660156 304.613281 C 216.832031 305.589844 217.820312 310.8125 220 316.082031 L 211.726562 318.175781 C 205.488281 319.753906 199.128906 315.972656 197.546875 309.742188 L 195.949219 303.453125 C 194.367188 297.21875 198.15625 290.867188 204.394531 289.285156 L 218.589844 285.6875 C 224.820312 284.113281 231.179688 287.894531 232.761719 294.128906 L 234.355469 300.417969 L 234.363281 300.414062 C 234.363281 300.417969 234.363281 300.417969 234.363281 300.417969 C 237.203125 311.601562 236.925781 319.476562 233.65625 320.476562 Z M 233.65625 320.476562 " fill-opacity="1" fill-rule="nonzero"/><path fill="#777677" d="M 303.0625 342.316406 L 227.128906 335.496094 L 114.183594 335.496094 L 114.183594 353.820312 L 303.0625 353.820312 Z M 303.0625 342.316406 " fill-opacity="1" fill-rule="nonzero"/><g clip-path="url(#ba95bf03b5)"><path fill="#605c5d" d="M 303.0625 357.617188 L 161.625 357.617188 C 159.527344 357.617188 157.824219 355.917969 157.824219 353.820312 L 157.824219 335.496094 C 157.824219 333.402344 159.527344 331.699219 161.625 331.699219 L 227.128906 331.699219 C 227.242188 331.699219 227.355469 331.707031 227.46875 331.714844 L 303.402344 338.535156 C 305.363281 338.707031 306.863281 340.351562 306.863281 342.3125 L 306.863281 353.820312 C 306.863281 355.917969 305.160156 357.617188 303.0625 357.617188 Z M 165.425781 350.023438 L 299.261719 350.023438 L 299.261719 345.785156 L 226.957031 339.292969 L 165.425781 339.292969 Z M 165.425781 350.023438 " fill-opacity="1" fill-rule="nonzero"/></g><path fill="#ffffff" d="M 192.523438 159.25 L 24.703125 159.25 C 17.71875 159.25 12.03125 164.914062 12.03125 171.90625 L 12.03125 302.605469 C 12.03125 306.105469 13.457031 309.277344 15.75 311.546875 C 18.042969 313.855469 21.21875 315.261719 24.703125 315.261719 L 70.234375 315.261719 L 70.234375 335.496094 L 50.359375 335.496094 C 45.292969 335.496094 41.1875 339.597656 41.1875 344.660156 C 41.1875 349.71875 45.292969 353.820312 50.359375 353.820312 L 161.625 353.820312 C 166.691406 353.820312 170.800781 349.71875 170.800781 344.660156 C 170.800781 339.597656 166.691406 335.496094 161.625 335.496094 L 121.875 335.496094 L 121.875 315.261719 L 192.523438 315.261719 C 196.023438 315.261719 199.183594 313.855469 201.492188 311.546875 C 203.765625 309.277344 205.191406 306.105469 205.191406 302.605469 L 205.191406 171.90625 C 205.191406 164.914062 199.523438 159.25 192.523438 159.25 Z M 192.523438 159.25 " fill-opacity="1" fill-rule="nonzero"/><g clip-path="url(#c7556e251b)"><path fill="#e3e3e3" d="M 192.527344 155.457031 L 192.527344 155.453125 L 24.703125 155.453125 C 15.617188 155.453125 8.226562 162.835938 8.226562 171.910156 L 8.226562 302.605469 C 8.226562 307 9.941406 311.132812 13.050781 314.238281 C 16.164062 317.347656 20.300781 319.058594 24.703125 319.058594 L 66.433594 319.058594 L 66.433594 331.699219 L 50.359375 331.699219 C 43.207031 331.699219 37.386719 337.515625 37.386719 344.660156 C 37.386719 351.804688 43.207031 357.617188 50.359375 357.617188 L 161.625 357.617188 C 168.78125 357.617188 174.601562 351.804688 174.601562 344.660156 C 174.601562 337.515625 168.78125 331.699219 161.625 331.699219 L 125.679688 331.699219 L 125.679688 319.058594 L 192.472656 319.058594 C 192.492188 319.058594 192.507812 319.058594 192.527344 319.058594 C 201.609375 319.058594 208.996094 311.679688 208.996094 302.609375 L 208.996094 171.910156 C 208.996094 162.835938 201.609375 155.457031 192.527344 155.457031 Z M 44.988281 344.660156 C 44.988281 341.703125 47.398438 339.292969 50.359375 339.292969 L 66.433594 339.292969 L 66.433594 350.023438 L 50.359375 350.023438 C 47.398438 350.023438 44.988281 347.617188 44.988281 344.660156 Z M 74.035156 256.359375 C 74.035156 249.699219 79.460938 244.277344 86.128906 244.277344 L 105.980469 244.277344 C 112.648438 244.277344 118.074219 249.699219 118.074219 256.359375 L 118.074219 350.023438 L 74.035156 350.023438 Z M 161.625 339.292969 C 164.589844 339.292969 167 341.703125 167 344.660156 C 167 347.617188 164.589844 350.023438 161.625 350.023438 L 125.675781 350.023438 L 125.675781 339.292969 Z M 201.394531 302.605469 C 201.394531 307.492188 197.414062 311.464844 192.527344 311.464844 L 192.5 311.464844 C 187.621094 311.449219 183.65625 307.484375 183.65625 302.605469 C 183.65625 300.511719 181.953125 298.808594 179.855469 298.808594 C 177.753906 298.808594 176.054688 300.511719 176.054688 302.605469 C 176.054688 305.867188 177.011719 308.90625 178.65625 311.464844 L 125.675781 311.464844 L 125.675781 256.359375 C 125.675781 245.511719 116.839844 236.683594 105.980469 236.683594 L 86.128906 236.683594 C 75.269531 236.683594 66.433594 245.511719 66.433594 256.359375 L 66.433594 311.464844 L 24.703125 311.464844 C 22.332031 311.464844 20.101562 310.542969 18.425781 308.867188 C 16.753906 307.195312 15.828125 304.972656 15.828125 302.605469 L 15.828125 171.914062 C 15.828125 167.023438 19.808594 163.046875 24.703125 163.046875 L 178.65625 163.046875 C 177.011719 165.609375 176.054688 168.648438 176.054688 171.910156 L 176.054688 267.628906 C 176.054688 269.726562 177.753906 271.425781 179.855469 271.425781 C 181.953125 271.425781 183.65625 269.726562 183.65625 267.628906 L 183.65625 171.910156 C 183.65625 167.023438 187.632812 163.050781 192.523438 163.050781 C 197.414062 163.050781 201.394531 167.023438 201.394531 171.910156 Z M 201.394531 302.605469 " fill-opacity="1" fill-rule="nonzero"/></g><path fill="#605c5d" d="M 53.375 252.253906 L 34.007812 252.253906 C 31.910156 252.253906 30.207031 250.554688 30.207031 248.457031 C 30.207031 246.359375 31.910156 244.660156 34.007812 244.660156 L 53.375 244.660156 C 55.472656 244.660156 57.175781 246.359375 57.175781 248.457031 C 57.175781 250.550781 55.472656 252.253906 53.375 252.253906 Z M 53.375 252.253906 " fill-opacity="1" fill-rule="nonzero"/><path fill="#605c5d" d="M 53.375 269.558594 L 34.007812 269.558594 C 31.910156 269.558594 30.207031 267.859375 30.207031 265.761719 C 30.207031 263.664062 31.910156 261.964844 34.007812 261.964844 L 53.375 261.964844 C 55.472656 261.964844 57.175781 263.664062 57.175781 265.761719 C 57.175781 267.859375 55.472656 269.558594 53.375 269.558594 Z M 53.375 269.558594 " fill-opacity="1" fill-rule="nonzero"/><path fill="#605c5d" d="M 53.375 286.867188 L 34.007812 286.867188 C 31.910156 286.867188 30.207031 285.164062 30.207031 283.070312 C 30.207031 280.972656 31.910156 279.273438 34.007812 279.273438 L 53.375 279.273438 C 55.472656 279.273438 57.175781 280.972656 57.175781 283.070312 C 57.175781 285.164062 55.472656 286.867188 53.375 286.867188 Z M 53.375 286.867188 " fill-opacity="1" fill-rule="nonzero"/><path fill="#605c5d" d="M 159.375 252.253906 L 140.011719 252.253906 C 137.910156 252.253906 136.210938 250.554688 136.210938 248.457031 C 136.210938 246.359375 137.910156 244.660156 140.011719 244.660156 L 159.375 244.660156 C 161.476562 244.660156 163.179688 246.359375 163.179688 248.457031 C 163.179688 250.550781 161.476562 252.253906 159.375 252.253906 Z M 159.375 252.253906 " fill-opacity="1" fill-rule="nonzero"/><path fill="#605c5d" d="M 159.375 269.558594 L 140.011719 269.558594 C 137.910156 269.558594 136.210938 267.859375 136.210938 265.761719 C 136.210938 263.664062 137.910156 261.964844 140.011719 261.964844 L 159.375 261.964844 C 161.476562 261.964844 163.179688 263.664062 163.179688 265.761719 C 163.179688 267.859375 161.476562 269.558594 159.375 269.558594 Z M 159.375 269.558594 " fill-opacity="1" fill-rule="nonzero"/><path fill="#605c5d" d="M 159.375 286.867188 L 140.011719 286.867188 C 137.910156 286.867188 136.210938 285.164062 136.210938 283.070312 C 136.210938 280.972656 137.910156 279.273438 140.011719 279.273438 L 159.375 279.273438 C 161.476562 279.273438 163.179688 280.972656 163.179688 283.070312 C 163.179688 285.164062 161.476562 286.867188 159.375 286.867188 Z M 159.375 286.867188 " fill-opacity="1" fill-rule="nonzero"/><path fill="#605c5d" d="M 223.328125 335.496094 L 230.929688 335.496094 L 230.929688 353.820312 L 223.328125 353.820312 Z M 223.328125 335.496094 " fill-opacity="1" fill-rule="nonzero"/><path fill="#605c5d" d="M 53.113281 62.636719 C 54.894531 64.5625 53.832031 67.824219 50.554688 67.59375 C 50.554688 67.59375 37.105469 67.59375 37.105469 67.59375 C 34.859375 67.59375 33.734375 66.636719 33.734375 64.726562 C 33.761719 62.648438 35.007812 61.949219 37.105469 61.941406 C 37.105469 61.941406 40.246094 61.941406 40.246094 61.941406 L 40.246094 47.96875 C 39.34375 48.394531 36.828125 50.28125 35.789062 50.171875 C 33.167969 50.140625 32.109375 45.9375 34.511719 44.714844 C 34.511719 44.714844 40.710938 41.113281 40.710938 41.113281 C 43.363281 39.371094 47.441406 39.9375 47.378906 43.59375 C 47.378906 43.59375 47.378906 61.941406 47.378906 61.941406 C 48.820312 62.011719 52.125 61.621094 53.113281 62.636719 Z M 53.113281 62.636719 " fill-opacity="1" fill-rule="nonzero"/><path fill="#605c5d" d="M 57.839844 64.339844 C 56.058594 61.941406 55.164062 58.472656 55.164062 53.929688 C 55.203125 46.1875 57.726562 40.074219 65.589844 39.953125 C 73.414062 40.082031 75.984375 46.203125 76.015625 53.929688 C 76.015625 58.472656 75.125 61.941406 73.339844 64.339844 C 70.144531 69.144531 61.039062 69.144531 57.839844 64.339844 Z M 68.265625 60.546875 C 68.808594 59.207031 69.082031 57 69.082031 53.929688 C 69.082031 50.882812 68.808594 48.691406 68.265625 47.347656 C 67.339844 44.664062 63.855469 44.660156 62.917969 47.328125 C 61.917969 49.964844 60.808594 62.796875 65.589844 62.5625 C 66.832031 62.5625 67.722656 61.890625 68.265625 60.546875 Z M 68.265625 60.546875 " fill-opacity="1" fill-rule="nonzero"/><path fill="#605c5d" d="M 99.621094 62.636719 C 101.398438 64.5625 100.339844 67.824219 97.0625 67.59375 C 97.0625 67.59375 83.613281 67.59375 83.613281 67.59375 C 81.363281 67.59375 80.242188 66.636719 80.242188 64.726562 C 80.265625 62.648438 81.515625 61.949219 83.613281 61.941406 L 86.753906 61.941406 L 86.753906 47.96875 C 85.851562 48.394531 83.332031 50.28125 82.296875 50.171875 C 79.675781 50.140625 78.617188 45.9375 81.015625 44.714844 C 81.015625 44.714844 87.21875 41.113281 87.21875 41.113281 C 89.867188 39.371094 93.949219 39.9375 93.882812 43.59375 C 93.882812 43.59375 93.882812 61.941406 93.882812 61.941406 C 95.328125 62.011719 98.628906 61.621094 99.621094 62.636719 Z M 99.621094 62.636719 " fill-opacity="1" fill-rule="nonzero"/><path fill="#605c5d" d="M 104.347656 64.339844 C 102.5625 61.941406 101.671875 58.472656 101.671875 53.929688 C 101.710938 46.1875 104.234375 40.074219 112.097656 39.953125 C 119.921875 40.082031 122.488281 46.203125 122.523438 53.929688 C 122.523438 58.472656 121.632812 61.941406 119.847656 64.339844 C 116.652344 69.144531 107.546875 69.144531 104.347656 64.339844 Z M 114.773438 60.546875 C 115.316406 59.207031 115.585938 57 115.585938 53.929688 C 115.585938 50.882812 115.3125 48.691406 114.773438 47.347656 C 113.84375 44.664062 110.363281 44.660156 109.421875 47.328125 C 108.425781 49.964844 107.316406 62.796875 112.097656 62.5625 C 113.335938 62.5625 114.230469 61.890625 114.773438 60.546875 Z M 114.773438 60.546875 " fill-opacity="1" fill-rule="nonzero"/><path fill="#605c5d" d="M 127.601562 64.339844 C 125.816406 61.941406 124.925781 58.472656 124.925781 53.929688 C 124.964844 46.1875 127.488281 40.074219 135.351562 39.953125 C 143.175781 40.082031 145.742188 46.203125 145.773438 53.929688 C 145.773438 58.472656 144.882812 61.941406 143.101562 64.339844 C 139.902344 69.144531 130.796875 69.144531 127.601562 64.339844 Z M 138.023438 60.546875 C 138.566406 59.207031 138.839844 57 138.839844 53.929688 C 138.839844 50.882812 138.566406 48.691406 138.023438 47.347656 C 137.097656 44.664062 133.613281 44.660156 132.675781 47.328125 C 131.675781 49.964844 130.566406 62.796875 135.351562 62.5625 C 136.589844 62.5625 137.484375 61.890625 138.023438 60.546875 Z M 138.023438 60.546875 " fill-opacity="1" fill-rule="nonzero"/><path fill="#605c5d" d="M 34.585938 97.324219 C 32.804688 94.925781 31.914062 91.453125 31.914062 86.914062 C 31.953125 79.171875 34.476562 73.058594 42.339844 72.9375 C 50.164062 73.066406 52.730469 79.1875 52.761719 86.910156 C 52.761719 91.453125 51.871094 94.925781 50.089844 97.324219 C 46.890625 102.128906 37.785156 102.128906 34.585938 97.324219 Z M 45.011719 93.53125 C 45.554688 92.191406 45.828125 89.984375 45.828125 86.914062 C 45.828125 83.867188 45.554688 81.671875 45.011719 80.332031 C 44.085938 77.648438 40.601562 77.644531 39.664062 80.3125 C 38.664062 82.949219 37.554688 95.78125 42.339844 95.546875 C 43.578125 95.542969 44.472656 94.875 45.011719 93.53125 Z M 45.011719 93.53125 " fill-opacity="1" fill-rule="nonzero"/><path fill="#605c5d" d="M 57.839844 97.324219 C 56.058594 94.925781 55.164062 91.453125 55.164062 86.914062 C 55.203125 79.171875 57.726562 73.058594 65.589844 72.9375 C 73.414062 73.066406 75.984375 79.1875 76.015625 86.910156 C 76.015625 91.453125 75.125 94.925781 73.339844 97.324219 C 70.144531 102.128906 61.039062 102.128906 57.839844 97.324219 Z M 68.265625 93.53125 C 68.808594 92.191406 69.082031 89.984375 69.082031 86.914062 C 69.082031 83.867188 68.808594 81.671875 68.265625 80.332031 C 67.339844 77.648438 63.855469 77.644531 62.917969 80.3125 C 61.917969 82.949219 60.808594 95.78125 65.589844 95.546875 C 66.832031 95.542969 67.722656 94.875 68.265625 93.53125 Z M 68.265625 93.53125 " fill-opacity="1" fill-rule="nonzero"/><path fill="#605c5d" d="M 99.621094 95.621094 C 101.398438 97.546875 100.339844 100.808594 97.0625 100.578125 C 97.0625 100.578125 83.613281 100.578125 83.613281 100.578125 C 81.363281 100.578125 80.242188 99.621094 80.242188 97.710938 C 80.265625 95.632812 81.515625 94.933594 83.613281 94.925781 L 86.753906 94.925781 L 86.753906 80.949219 C 85.851562 81.378906 83.332031 83.265625 82.296875 83.15625 C 79.675781 83.125 78.617188 78.921875 81.015625 77.699219 C 81.015625 77.699219 87.21875 74.097656 87.21875 74.097656 C 89.867188 72.355469 93.949219 72.921875 93.882812 76.574219 C 93.882812 76.574219 93.882812 94.925781 93.882812 94.925781 C 95.328125 94.996094 98.628906 94.605469 99.621094 95.621094 Z M 99.621094 95.621094 " fill-opacity="1" fill-rule="nonzero"/><path fill="#605c5d" d="M 122.871094 95.621094 C 124.652344 97.546875 123.589844 100.808594 120.3125 100.578125 C 120.3125 100.578125 106.863281 100.578125 106.863281 100.578125 C 104.617188 100.578125 103.492188 99.621094 103.492188 97.710938 C 103.519531 95.632812 104.769531 94.933594 106.863281 94.925781 L 110.003906 94.925781 L 110.003906 80.949219 C 109.101562 81.378906 106.585938 83.265625 105.546875 83.15625 C 102.925781 83.125 101.867188 78.921875 104.269531 77.699219 C 104.269531 77.699219 110.46875 74.097656 110.46875 74.097656 C 113.121094 72.355469 117.199219 72.921875 117.136719 76.574219 C 117.136719 76.574219 117.136719 94.925781 117.136719 94.925781 C 118.582031 94.996094 121.882812 94.605469 122.871094 95.621094 Z M 122.871094 95.621094 " fill-opacity="1" fill-rule="nonzero"/><path fill="#605c5d" d="M 127.601562 97.324219 C 125.816406 94.925781 124.925781 91.453125 124.925781 86.914062 C 124.964844 79.171875 127.488281 73.058594 135.351562 72.9375 C 143.175781 73.066406 145.742188 79.1875 145.773438 86.910156 C 145.773438 91.453125 144.882812 94.925781 143.101562 97.324219 C 139.902344 102.128906 130.796875 102.128906 127.601562 97.324219 Z M 138.023438 93.53125 C 138.566406 92.191406 138.839844 89.984375 138.839844 86.914062 C 138.839844 83.867188 138.566406 81.671875 138.023438 80.332031 C 137.097656 77.648438 133.613281 77.644531 132.675781 80.3125 C 131.675781 82.949219 130.566406 95.78125 135.351562 95.546875 C 136.589844 95.542969 137.484375 94.875 138.023438 93.53125 Z M 138.023438 93.53125 " fill-opacity="1" fill-rule="nonzero"/><g clip-path="url(#40f0ae515f)"><path fill="#00d4d7" d="M 107.972656 150.945312 C 99.398438 150.945312 92.773438 140.074219 91.8125 125.097656 L 44.910156 125.097656 C 24.160156 125.097656 7.28125 108.238281 7.28125 87.511719 L 7.28125 54.679688 C 7.28125 33.953125 24.160156 17.09375 44.910156 17.09375 L 132.777344 17.09375 C 153.527344 17.09375 170.410156 33.953125 170.410156 54.679688 L 170.410156 87.515625 C 170.410156 108.238281 153.527344 125.097656 132.777344 125.097656 L 124.128906 125.097656 C 123.164062 140.074219 116.542969 150.945312 107.972656 150.945312 Z M 44.910156 24.6875 C 28.351562 24.6875 14.882812 38.140625 14.882812 54.679688 L 14.882812 87.515625 C 14.882812 104.050781 28.351562 117.503906 44.910156 117.503906 L 95.492188 117.503906 C 97.59375 117.503906 99.296875 119.203125 99.296875 121.300781 C 99.296875 134.761719 104.433594 143.351562 107.972656 143.351562 C 111.507812 143.351562 116.644531 134.761719 116.644531 121.300781 C 116.644531 119.203125 118.347656 117.503906 120.445312 117.503906 L 132.777344 117.503906 C 149.335938 117.503906 162.804688 104.050781 162.804688 87.515625 L 162.804688 54.679688 C 162.804688 38.140625 149.335938 24.6875 132.777344 24.6875 Z M 44.910156 24.6875 " fill-opacity="1" fill-rule="nonzero"/></g></svg>